<svg version="1.1" id="Layer_1" xmlns="http://www.w3.org/2000/svg" xmlns:xlink="http://www.w3.org/1999/xlink" x="0px" y="0px"
	 width="100%" viewBox="0 0 1055 768" enable-background="new 0 0 1055 768" xml:space="preserve">
<path fill="#FBEAD8" opacity="1.000000" stroke="none" 
	d="
M0.999998,482.000000 
	C1.000000,321.718597 1.000000,161.437180 1.000000,1.000000 
	C272.026825,1.000000 543.053711,1.000000 814.469116,1.392651 
	C822.911682,30.039492 835.628357,56.189724 851.351257,80.857834 
	C889.229126,140.285522 939.749207,187.233719 997.797363,226.231995 
	C1016.220947,238.609406 1036.545410,248.157288 1056.000000,259.000000 
	C1056.000000,428.947235 1056.000000,598.894470 1056.000000,769.000000 
	C775.973145,769.000000 495.946289,769.000000 215.371017,768.604797 
	C213.759644,761.655457 212.930496,755.053223 211.595749,748.554932 
	C202.884186,706.142029 185.885406,667.156982 162.494247,630.867493 
	C144.554993,603.036133 122.754997,578.487000 99.177589,555.307739 
	C74.379189,530.928162 47.604618,509.179840 18.077839,490.851013 
	C12.646612,487.479584 6.705658,484.929321 0.999998,482.000000 
M368.459991,102.383873 
	C365.284454,86.536690 354.750824,75.506783 340.052002,73.317505 
	C330.850891,71.947067 321.693726,73.107979 313.036957,76.487312 
	C249.046844,101.466957 212.181213,149.092392 199.546005,215.573456 
	C195.426407,237.249054 201.901108,256.679779 222.974060,268.419098 
	C223.509430,268.717316 223.831879,269.397766 223.868195,270.539429 
	C222.393280,274.272095 220.918365,278.004761 218.782104,281.885101 
	C216.293854,281.034668 213.854507,279.978638 211.308060,279.372894 
	C204.095657,277.657440 199.127090,281.780243 198.868988,289.146423 
	C198.674866,294.686127 200.790512,299.087524 204.463470,302.968475 
	C206.726746,305.359924 208.952835,307.786530 211.078735,311.003296 
	C210.876648,312.314850 210.682373,313.627625 210.471329,314.937744 
	C207.379990,334.127380 202.948807,353.214050 201.467361,372.527039 
	C198.224335,414.805573 203.418610,456.426788 217.262833,496.544556 
	C246.441864,581.099487 300.998657,643.996094 380.848572,684.495728 
	C420.272949,704.491699 462.283203,715.312134 506.515167,716.990784 
	C526.670654,717.755920 546.767334,717.072205 566.790466,714.091797 
	C597.140015,709.574219 626.225769,701.038269 654.536438,688.359680 
	C660.826904,702.747314 671.803894,711.578308 687.392334,712.259216 
	C696.983093,712.678101 707.109863,711.329041 716.302612,708.511414 
	C753.394714,697.142639 784.207336,675.884033 809.249329,646.342590 
	C834.797058,616.204468 852.737366,582.224426 859.379150,542.968201 
	C861.612000,529.770874 859.795532,516.874329 853.066956,504.806000 
	C847.300781,494.463898 837.812683,489.361359 827.803955,484.161530 
	C828.947388,479.505310 830.090759,474.849091 831.904724,470.202057 
	C837.306213,472.627380 842.555237,475.521454 848.153503,477.341614 
	C853.390503,479.044342 858.789795,475.455750 859.697388,470.116486 
	C860.622681,464.673065 860.446533,459.336700 857.023010,454.408661 
	C851.968262,447.132568 844.987976,442.251770 837.790588,436.894257 
	C838.793091,425.958466 840.280945,415.041504 840.706787,404.083313 
	C841.968811,371.608948 838.656128,339.526550 830.382935,308.092316 
	C810.482361,232.479446 769.204590,171.111267 706.049866,124.983765 
	C651.281616,84.981667 589.610046,64.889877 521.757690,64.264351 
	C499.406006,64.058289 477.246246,66.315773 455.329956,70.990982 
	C424.997498,77.461555 396.148499,87.835388 368.459991,102.383873 
z"/>
<path fill="#A9B29A" opacity="1.000000" stroke="none" 
	d="
M0.999998,482.468658 
	C6.705658,484.929321 12.646612,487.479584 18.077839,490.851013 
	C47.604618,509.179840 74.379189,530.928162 99.177589,555.307739 
	C122.754997,578.487000 144.554993,603.036133 162.494247,630.867493 
	C185.885406,667.156982 202.884186,706.142029 211.595749,748.554932 
	C212.930496,755.053223 213.759644,761.655457 214.911316,768.604797 
	C143.728989,769.000000 72.457985,769.000000 1.000000,769.000000 
	C1.000000,673.645874 1.000000,578.291565 0.999998,482.468658 
z"/>
<path fill="#C36743" opacity="1.000000" stroke="none" 
	d="
M1056.000000,258.531342 
	C1036.545410,248.157288 1016.220947,238.609406 997.797363,226.231995 
	C939.749207,187.233719 889.229126,140.285522 851.351257,80.857834 
	C835.628357,56.189724 822.911682,30.039492 814.928833,1.392651 
	C895.262878,1.000000 975.525696,1.000000 1056.000000,1.000000 
	C1056.000000,86.687447 1056.000000,172.375061 1056.000000,258.531342 
z"/>
<path fill="#8C9976" opacity="1.000000" stroke="none" 
	d="
M219.443451,281.737427 
	C220.918365,278.004761 222.393280,274.272095 224.422836,270.252319 
	C240.070786,276.697144 255.608734,276.894409 271.168335,272.317535 
	C298.027191,264.417023 316.942352,245.898819 332.234436,223.708115 
	C345.822723,203.989838 356.127777,182.393173 362.775757,159.226410 
	C368.064514,140.796158 372.165558,122.233932 368.999115,102.869614 
	C396.148499,87.835388 424.997498,77.461555 455.329956,70.990982 
	C477.246246,66.315773 499.406006,64.058289 521.757690,64.264351 
	C589.610046,64.889877 651.281616,84.981667 706.049866,124.983765 
	C769.204590,171.111267 810.482361,232.479446 830.382935,308.092316 
	C838.656128,339.526550 841.968811,371.608948 840.706787,404.083313 
	C840.280945,415.041504 838.793091,425.958466 837.329590,437.366821 
	C836.068176,437.665070 835.274719,437.443420 834.466125,437.324097 
	C829.157043,436.540924 824.018188,436.462463 819.109375,439.368286 
	C811.942139,443.611053 810.913818,450.632599 817.353455,457.690399 
	C821.530457,462.268341 826.577148,466.052856 831.234192,470.192871 
	C830.090759,474.849091 828.947388,479.505310 827.347656,484.536438 
	C821.521423,483.942169 816.186401,482.464233 810.775452,482.093170 
	C789.120422,480.608307 769.940796,488.201447 752.068909,499.432220 
	C730.956787,512.699097 714.302673,530.714233 699.640381,550.648743 
	C683.008545,573.260925 669.523193,597.596680 660.479736,624.235046 
	C654.768372,641.058350 649.288025,657.993896 652.004944,676.217041 
	C652.589783,680.139709 653.316101,684.041382 653.977234,687.952698 
	C626.225769,701.038269 597.140015,709.574219 566.790466,714.091797 
	C546.767334,717.072205 526.670654,717.755920 506.515167,716.990784 
	C462.283203,715.312134 420.272949,704.491699 380.848572,684.495728 
	C300.998657,643.996094 246.441864,581.099487 217.262833,496.544556 
	C203.418610,456.426788 198.224335,414.805573 201.467361,372.527039 
	C202.948807,353.214050 207.379990,334.127380 210.471329,314.937744 
	C210.682373,313.627625 210.876648,312.314850 211.477325,310.604034 
	C216.319870,312.323456 220.584503,315.070526 225.252899,316.402588 
	C231.158997,318.087769 236.476105,315.575287 240.256378,310.966370 
	C243.293533,307.263428 243.003464,302.739288 240.196838,298.970215 
	C237.864441,295.837921 235.047028,292.946960 232.006348,290.491638 
	C228.045197,287.293091 223.651184,284.630615 219.443451,281.737427 
M630.799622,264.695953 
	C619.442932,245.874588 608.365173,226.877319 596.644043,208.285721 
	C586.688721,192.494919 575.986938,177.164307 561.994202,164.526688 
	C543.842468,148.132874 520.737061,146.785278 501.156677,161.217346 
	C485.322937,172.887863 472.836578,187.920898 460.471954,203.002136 
	C412.723114,261.241974 378.649048,326.295563 362.381866,400.209473 
	C355.422302,431.831757 351.946625,463.578461 358.000458,495.808105 
	C364.860413,532.329468 382.813354,561.986267 412.894440,583.893066 
	C448.640411,609.925415 488.512268,621.416870 532.807312,617.167725 
	C556.764893,614.869568 579.105530,608.075623 599.555847,595.300354 
	C634.256226,573.623169 656.021057,542.178406 667.957825,503.622833 
	C682.231384,457.519379 680.707397,410.993530 670.302551,364.441956 
	C662.465515,329.379120 648.529236,296.669647 630.799622,264.695953 
z"/>
<path fill="#99B6C1" opacity="1.000000" stroke="none" 
	d="
M654.256836,688.156189 
	C653.316101,684.041382 652.589783,680.139709 652.004944,676.217041 
	C649.288025,657.993896 654.768372,641.058350 660.479736,624.235046 
	C669.523193,597.596680 683.008545,573.260925 699.640381,550.648743 
	C714.302673,530.714233 730.956787,512.699097 752.068909,499.432220 
	C769.940796,488.201447 789.120422,480.608307 810.775452,482.093170 
	C816.186401,482.464233 821.521423,483.942169 827.258667,484.918579 
	C837.812683,489.361359 847.300781,494.463898 853.066956,504.806000 
	C859.795532,516.874329 861.612000,529.770874 859.379150,542.968201 
	C852.737366,582.224426 834.797058,616.204468 809.249329,646.342590 
	C784.207336,675.884033 753.394714,697.142639 716.302612,708.511414 
	C707.109863,711.329041 696.983093,712.678101 687.392334,712.259216 
	C671.803894,711.578308 660.826904,702.747314 654.256836,688.156189 
z"/>
<path fill="#C36742" opacity="1.000000" stroke="none" 
	d="
M368.729553,102.626740 
	C372.165558,122.233932 368.064514,140.796158 362.775757,159.226410 
	C356.127777,182.393173 345.822723,203.989838 332.234436,223.708115 
	C316.942352,245.898819 298.027191,264.417023 271.168335,272.317535 
	C255.608734,276.894409 240.070786,276.697144 224.615540,269.932556 
	C223.831879,269.397766 223.509430,268.717316 222.974060,268.419098 
	C201.901108,256.679779 195.426407,237.249054 199.546005,215.573456 
	C212.181213,149.092392 249.046844,101.466957 313.036957,76.487312 
	C321.693726,73.107979 330.850891,71.947067 340.052002,73.317505 
	C354.750824,75.506783 365.284454,86.536690 368.729553,102.626740 
z"/>
<path fill="#EAC87C" opacity="1.000000" stroke="none" 
	d="
M831.569458,470.197479 
	C826.577148,466.052856 821.530457,462.268341 817.353455,457.690399 
	C810.913818,450.632599 811.942139,443.611053 819.109375,439.368286 
	C824.018188,436.462463 829.157043,436.540924 834.466125,437.324097 
	C835.274719,437.443420 836.068176,437.665070 837.250732,437.786438 
	C844.987976,442.251770 851.968262,447.132568 857.023010,454.408661 
	C860.446533,459.336700 860.622681,464.673065 859.697388,470.116486 
	C858.789795,475.455750 853.390503,479.044342 848.153503,477.341614 
	C842.555237,475.521454 837.306213,472.627380 831.569458,470.197479 
z"/>
<path fill="#E6C473" opacity="1.000000" stroke="none" 
	d="
M219.112762,281.811279 
	C223.651184,284.630615 228.045197,287.293091 232.006348,290.491638 
	C235.047028,292.946960 237.864441,295.837921 240.196838,298.970215 
	C243.003464,302.739288 243.293533,307.263428 240.256378,310.966370 
	C236.476105,315.575287 231.158997,318.087769 225.252899,316.402588 
	C220.584503,315.070526 216.319870,312.323456 211.535767,310.201050 
	C208.952835,307.786530 206.726746,305.359924 204.463470,302.968475 
	C200.790512,299.087524 198.674866,294.686127 198.868988,289.146423 
	C199.127090,281.780243 204.095657,277.657440 211.308060,279.372894 
	C213.854507,279.978638 216.293854,281.034668 219.112762,281.811279 
z"/>
<path fill="#FBE9D6" opacity="1.000000" stroke="none" 
	d="
M630.962891,265.027710 
	C648.529236,296.669647 662.465515,329.379120 670.302551,364.441956 
	C680.707397,410.993530 682.231384,457.519379 667.957825,503.622833 
	C656.021057,542.178406 634.256226,573.623169 599.555847,595.300354 
	C579.105530,608.075623 556.764893,614.869568 532.807312,617.167725 
	C488.512268,621.416870 448.640411,609.925415 412.894440,583.893066 
	C382.813354,561.986267 364.860413,532.329468 358.000458,495.808105 
	C351.946625,463.578461 355.422302,431.831757 362.381866,400.209473 
	C378.649048,326.295563 412.723114,261.241974 460.471954,203.002136 
	C472.836578,187.920898 485.322937,172.887863 501.156677,161.217346 
	C520.737061,146.785278 543.842468,148.132874 561.994202,164.526688 
	C575.986938,177.164307 586.688721,192.494919 596.644043,208.285721 
	C608.365173,226.877319 619.442932,245.874588 630.962891,265.027710 
M467.277832,304.210876 
	C466.118317,306.079437 464.958771,307.948029 463.253418,310.211761 
	C460.158936,315.136810 457.064423,320.061859 453.495087,325.240356 
	C453.300995,325.727051 453.106903,326.213745 452.451813,327.003235 
	C452.311066,327.334015 452.170349,327.664795 451.525360,328.314606 
	C451.280121,328.846191 451.034912,329.377808 450.259888,330.288361 
	C449.152588,332.184296 448.045288,334.080231 446.469116,336.232849 
	C446.275299,336.716949 446.081482,337.201019 445.357971,338.075623 
	C444.870514,339.028259 444.383057,339.980865 443.966736,341.006317 
	C443.966736,341.006317 443.927002,340.912659 443.355865,341.267181 
	C441.889099,343.832764 440.422333,346.398346 438.403900,349.348419 
	C436.859467,352.163208 435.315063,354.977997 433.249268,358.218475 
	C432.117371,360.460236 430.985474,362.701996 429.380554,365.278992 
	C429.191223,365.818237 429.001862,366.357513 428.292175,367.338409 
	C423.903229,376.803131 419.085876,386.096588 415.218994,395.770050 
	C408.253510,413.195374 403.082703,431.138275 402.031403,450.973083 
	C402.130005,458.343567 402.228607,465.714081 402.286041,473.999939 
	C403.896881,481.997253 405.507751,489.994598 407.117859,498.741974 
	C409.661438,504.667328 412.205017,510.592712 414.802521,517.213013 
	C424.198029,535.130249 437.304779,549.832520 454.728607,560.007629 
	C495.287537,583.693115 537.138550,582.398560 578.770874,563.558838 
	C611.377625,548.803284 630.555054,522.696411 637.303894,487.556244 
	C642.560059,460.188385 638.598755,433.536987 630.582886,407.289154 
	C620.430359,374.044800 604.218018,343.670593 585.553101,314.582855 
	C567.750549,286.838989 549.380554,259.459473 531.309875,231.887024 
	C528.348083,227.367828 525.644165,222.679550 522.464844,217.487564 
	C519.939453,221.824326 517.935669,225.443802 515.765808,228.960785 
	C506.508240,243.965561 497.201538,258.940002 487.353180,274.291351 
	C481.515106,283.146606 475.677032,292.001831 469.316376,301.185699 
	C468.819702,302.070404 468.322998,302.955109 467.277832,304.210876 
z"/>
<path fill="#BE6742" opacity="1.000000" stroke="none" 
	d="
M487.912781,273.925537 
	C497.201538,258.940002 506.508240,243.965561 515.765808,228.960785 
	C517.935669,225.443802 519.939453,221.824326 522.464844,217.487564 
	C525.644165,222.679550 528.348083,227.367828 531.309875,231.887024 
	C549.380554,259.459473 567.750549,286.838989 585.553101,314.582855 
	C604.218018,343.670593 620.430359,374.044800 630.582886,407.289154 
	C638.598755,433.536987 642.560059,460.188385 637.303894,487.556244 
	C630.555054,522.696411 611.377625,548.803284 578.770874,563.558838 
	C537.138550,582.398560 495.287537,583.693115 454.728607,560.007629 
	C437.304779,549.832520 424.198029,535.130249 414.916138,516.539307 
	C415.353577,515.243774 415.677429,514.621887 416.354309,513.955200 
	C419.828949,512.415100 422.987305,510.990265 426.052429,509.387085 
	C427.150848,508.812561 428.024048,507.807434 429.345886,506.959778 
	C430.549896,506.567261 431.408081,506.213806 432.514343,506.086456 
	C438.975677,517.019165 446.217987,526.899597 456.034485,534.623413 
	C469.237488,545.011780 483.897766,551.946533 500.921722,553.050903 
	C505.016968,553.316650 507.476257,551.916443 506.706177,547.361328 
	C508.760376,552.790039 504.065948,557.788391 498.404297,556.632446 
	C493.535767,555.638428 488.736664,553.984619 483.828827,553.588257 
	C478.367157,553.147217 472.466187,548.335327 467.272522,554.592041 
	C466.746307,555.225952 465.019806,554.758484 463.909271,555.037170 
	C462.305908,555.439392 460.756531,556.056763 459.184082,556.582336 
	C459.089630,557.151428 458.995148,557.720581 458.900665,558.289734 
	C463.942444,560.873291 468.756287,564.171936 474.080627,565.869019 
	C481.641663,568.278992 489.993866,568.507507 497.244110,571.511780 
	C505.393646,574.888672 513.703064,574.330261 521.746643,574.191406 
	C531.874878,574.016479 541.976013,571.460938 552.048889,569.703430 
	C553.668945,569.420776 555.279907,568.156433 556.539917,566.968933 
	C558.227844,565.378113 558.558350,563.648621 556.104858,562.093384 
	C555.225891,561.536194 554.842651,560.197021 554.233154,559.214722 
	C555.468201,558.645508 556.727478,557.546021 557.933960,557.601135 
	C562.538147,557.811646 567.514709,555.698364 571.646912,559.620728 
	C572.160217,560.107971 573.550476,559.753174 574.522583,559.662476 
	C583.780029,558.799011 590.353943,552.336792 597.931824,548.072815 
	C599.964050,546.929321 601.327087,543.576538 601.843323,541.006226 
	C602.556396,537.455994 604.227478,535.555725 607.471313,534.207458 
	C610.125244,533.104370 612.927368,531.639648 614.826111,529.567627 
	C621.447388,522.342163 625.674377,513.833679 627.072388,504.015778 
	C627.253967,502.740417 627.692505,501.338531 628.457520,500.334686 
	C635.893616,490.576416 636.309448,478.881531 636.435059,467.580719 
	C636.549133,457.304230 634.852234,446.949615 633.284607,436.732086 
	C632.166504,429.444122 630.373108,422.187134 628.116699,415.161804 
	C623.655579,401.272583 619.525391,387.174744 613.666748,373.863647 
	C606.947144,358.596375 598.926819,343.847076 590.676880,329.324127 
	C583.339783,316.408142 575.093384,303.992615 566.910889,291.578644 
	C561.507446,283.380920 555.491028,275.588165 549.782837,267.589935 
	C547.877136,264.919678 546.071228,263.528076 542.304199,265.040344 
	C540.243652,265.867584 536.246155,265.172607 534.881409,263.618835 
	C533.059021,261.544006 533.169312,258.228729 536.121460,255.731934 
	C537.265869,254.763992 537.960510,252.054230 537.469238,250.611694 
	C536.412476,247.509048 534.614624,244.610138 532.822205,241.819153 
	C530.630127,238.405991 528.184204,238.583435 525.821716,241.971359 
	C523.653503,245.080490 521.473938,244.695541 519.153564,242.016586 
	C526.151794,236.205948 526.151794,236.205948 522.579651,227.598648 
	C519.373230,230.687241 517.149597,233.986328 517.096497,238.163666 
	C517.048950,241.905670 515.596008,243.381790 511.786682,242.771240 
	C509.382233,245.693985 507.191101,248.845505 504.766479,252.175827 
	C504.354889,252.903076 504.176849,253.451538 503.711823,254.154175 
	C503.283234,255.538895 503.141602,256.769440 502.999817,258.412109 
	C503.122681,265.191071 500.436188,269.481323 493.801392,270.774902 
	C492.735992,271.366119 491.869232,272.182465 491.001221,272.999390 
	C491.000000,273.000000 490.999146,273.002441 490.712280,273.127930 
	C489.645813,273.529236 488.866180,273.805023 488.043335,274.041748 
	C488.000092,274.002716 487.912781,273.925537 487.912781,273.925537 
M564.882446,564.355835 
	C564.941772,563.681274 565.001099,563.006775 565.060486,562.332153 
	C564.490723,562.503723 563.921021,562.675293 563.351318,562.846924 
	C563.670654,563.431458 563.989990,564.015930 564.882446,564.355835 
M537.482605,259.726624 
	C537.731079,259.988068 537.977356,260.251953 538.240967,260.497192 
	C538.247742,260.503510 538.444824,260.305359 538.553162,260.202545 
	C538.304321,259.941010 538.055542,259.679443 537.482605,259.726624 
z"/>
<path fill="#BE6742" opacity="1.000000" stroke="none" 
	d="
M407.118591,497.991913 
	C405.507751,489.994598 403.896881,481.997253 402.725464,473.526642 
	C403.442413,473.035919 403.719971,473.018463 404.048950,473.315674 
	C404.733551,474.086884 405.366791,474.543457 406.388977,474.998962 
	C413.631653,473.382965 415.326843,467.056122 418.855682,462.175873 
	C415.565918,458.392334 412.831512,454.635559 417.392273,449.981964 
	C418.530243,448.748993 419.306549,447.551575 420.014648,446.315125 
	C421.146484,444.338623 422.233063,442.336212 423.282593,440.745483 
	C422.798920,443.743805 422.284485,446.330505 421.958466,448.940765 
	C420.170135,463.258636 422.320282,477.204926 425.643677,490.997681 
	C424.510620,490.998291 423.755310,490.998535 422.781708,490.779236 
	C418.805450,491.813629 415.047455,493.067566 411.429108,494.274902 
	C410.001129,492.673859 408.995270,491.546112 407.591034,489.971680 
	C407.751465,493.117218 407.875122,495.542328 407.778748,497.973419 
	C407.558685,497.979401 407.118591,497.991913 407.118591,497.991913 
M422.837494,485.335388 
	C422.321106,484.022308 421.804718,482.709198 421.288330,481.396118 
	C420.693542,481.863037 420.098724,482.329956 419.503906,482.796875 
	C420.570251,483.866241 421.636597,484.935577 422.837494,485.335388 
z"/>
<path fill="#BE6742" opacity="1.000000" stroke="none" 
	d="
M402.264587,450.072571 
	C403.082703,431.138275 408.253510,413.195374 415.218994,395.770050 
	C419.085876,386.096588 423.903229,376.803131 428.807861,367.310486 
	C429.216583,368.522552 429.109619,369.762482 428.843872,371.305145 
	C427.790680,373.404633 426.896240,375.201416 425.699768,377.165771 
	C424.598511,379.221558 423.799255,381.109833 422.746765,383.222809 
	C421.996460,384.964447 421.499390,386.481323 420.731812,388.214996 
	C418.643616,392.955933 416.825958,397.480103 415.006226,402.378784 
	C415.002289,403.502167 415.000427,404.251068 414.644653,405.075897 
	C412.862518,409.102356 411.434296,413.052948 410.004883,417.423218 
	C409.323517,421.194458 413.106812,424.987061 408.638794,428.079956 
	C407.208313,432.150299 406.065826,436.124420 405.170441,440.153473 
	C405.068787,440.610962 406.355713,441.377045 407.000793,442.407104 
	C406.773254,445.887543 409.877594,449.324860 405.743408,452.111877 
	C404.991211,452.482788 404.495605,452.741760 403.769409,452.820984 
	C403.114075,451.785004 402.689331,450.928772 402.264587,450.072571 
z"/>
<path fill="#BF6B47" opacity="1.000000" stroke="none" 
	d="
M407.118225,498.366943 
	C407.118591,497.991913 407.558685,497.979401 408.122589,498.028931 
	C414.095795,502.020660 417.253082,506.997498 416.001221,514.000000 
	C415.677429,514.621887 415.353577,515.243774 414.889160,516.191833 
	C412.205017,510.592712 409.661438,504.667328 407.118225,498.366943 
z"/>
<path fill="#BF6A46" opacity="1.000000" stroke="none" 
	d="
M402.148010,450.522827 
	C402.689331,450.928772 403.114075,451.785004 403.819946,453.135681 
	C404.733612,454.087189 405.366211,454.544220 405.999023,455.441650 
	C406.332458,459.254730 406.665619,462.627380 406.601074,466.018982 
	C402.206604,467.325775 404.724823,470.677460 403.997559,473.001007 
	C403.719971,473.018463 403.442413,473.035919 402.746033,473.068970 
	C402.228607,465.714081 402.130005,458.343567 402.148010,450.522827 
z"/>
<path fill="#BE6742" opacity="1.000000" stroke="none" 
	d="
M469.838989,300.857056 
	C475.677032,292.001831 481.515106,283.146606 487.632996,274.108459 
	C487.912781,273.925537 488.000092,274.002716 488.015137,274.419067 
	C487.439880,276.309692 487.029724,277.891052 486.227875,279.239471 
	C482.882690,284.864441 479.419769,290.419373 475.738037,296.126892 
	C474.983612,296.835876 474.491180,297.417938 473.712463,298.152039 
	C472.308441,299.225037 471.190674,300.145966 470.014526,301.014343 
	C469.956146,300.961792 469.838989,300.857086 469.838989,300.857056 
z"/>
<path fill="#BE6742" opacity="1.000000" stroke="none" 
	d="
M453.969971,324.986877 
	C457.064423,320.061859 460.158936,315.136810 463.593750,310.075500 
	C463.934082,309.939240 464.068176,310.062653 464.038940,310.424805 
	C463.673553,312.191681 463.337372,313.596466 462.846954,315.299194 
	C460.460754,318.731445 458.228821,321.865723 455.659058,324.999207 
	C454.870819,324.994598 454.420380,324.990753 453.969971,324.986877 
z"/>
<path fill="#BE6742" opacity="1.000000" stroke="none" 
	d="
M445.887665,337.685120 
	C446.081482,337.201019 446.275299,336.716949 447.027832,336.082672 
	C448.390594,335.621643 449.194672,335.310822 449.991974,335.370056 
	C447.992676,338.494659 446.000214,341.249268 444.004578,343.617584 
	C443.976562,342.458405 443.951782,341.685547 443.927002,340.912659 
	C443.927002,340.912659 443.966736,341.006317 444.299103,340.920166 
	C445.050201,339.784393 445.468933,338.734741 445.887665,337.685120 
z"/>
<path fill="#BE6742" opacity="1.000000" stroke="none" 
	d="
M429.002655,371.002441 
	C429.109619,369.762482 429.216583,368.522552 429.068054,367.089691 
	C429.001862,366.357513 429.191223,365.818237 429.947815,365.083862 
	C431.676331,363.925842 432.837555,362.962921 433.990448,362.382416 
	C432.846558,365.827606 433.396057,369.908966 429.002655,371.002441 
z"/>
<path fill="#BE6742" opacity="1.000000" stroke="none" 
	d="
M453.732544,325.113647 
	C454.420380,324.990753 454.870819,324.994598 455.659210,325.379730 
	C454.667145,327.508789 453.337097,329.256531 451.856689,330.769012 
	C451.400787,330.325623 451.095245,330.117493 450.789703,329.909393 
	C451.034912,329.377808 451.280121,328.846191 451.996948,327.995728 
	C452.616669,327.351410 452.764740,327.025940 452.912811,326.700439 
	C453.106903,326.213745 453.300995,325.727051 453.732544,325.113647 
z"/>
<path fill="#BE6742" opacity="1.000000" stroke="none" 
	d="
M443.641418,341.089905 
	C443.951782,341.685547 443.976562,342.458405 443.871887,343.908203 
	C443.160767,345.723419 442.579163,346.861694 441.711548,348.126160 
	C440.648254,348.530579 439.870911,348.808838 439.059265,349.056091 
	C439.024933,349.025146 438.955566,348.963959 438.955566,348.963959 
	C440.422333,346.398346 441.889099,343.832764 443.641418,341.089905 
z"/>
<path fill="#BE6742" opacity="1.000000" stroke="none" 
	d="
M433.770630,357.792786 
	C435.315063,354.977997 436.859467,352.163208 438.679749,349.156189 
	C438.955566,348.963959 439.024933,349.025146 439.028809,349.433655 
	C437.377197,352.581482 435.721710,355.320770 433.992371,357.993286 
	C433.918457,357.926483 433.770630,357.792786 433.770630,357.792786 
z"/>
<path fill="#BE6742" opacity="1.000000" stroke="none" 
	d="
M450.524780,330.098877 
	C451.095245,330.117493 451.400787,330.325623 451.706879,331.058502 
	C451.137878,332.722198 450.568359,333.861115 449.998779,335.000000 
	C449.194672,335.310822 448.390594,335.621643 447.262238,335.954346 
	C448.045288,334.080231 449.152588,332.184296 450.524780,330.098877 
z"/>
<path fill="#BE6742" opacity="1.000000" stroke="none" 
	d="
M433.998779,362.000000 
	C432.837555,362.962921 431.676331,363.925842 430.184357,364.916260 
	C430.985474,362.701996 432.117371,360.460236 433.509949,358.005615 
	C433.770630,357.792786 433.918457,357.926483 433.970734,358.360474 
	C434.017761,359.531128 434.012543,360.267822 434.005371,361.253357 
	C434.003448,361.502258 433.998779,362.000000 433.998779,362.000000 
z"/>
<path fill="#BE6742" opacity="1.000000" stroke="none" 
	d="
M463.866669,309.877930 
	C464.958771,307.948029 466.118317,306.079437 467.613586,304.081543 
	C467.949310,303.952179 468.072021,304.064880 468.048889,304.430786 
	C468.018463,305.530457 468.011200,306.264252 468.001984,306.999023 
	C468.000000,307.000000 467.998779,307.004883 467.711914,307.155701 
	C466.306091,308.225220 465.187134,309.143921 464.068176,310.062653 
	C464.068176,310.062653 463.934082,309.939240 463.866669,309.877930 
z"/>
<path fill="#BE6742" opacity="1.000000" stroke="none" 
	d="
M467.887817,303.895996 
	C468.322998,302.955109 468.819702,302.070404 469.577698,301.021393 
	C469.838989,300.857086 469.956146,300.961792 469.984009,301.354340 
	C469.365265,302.519562 468.718658,303.292206 468.072021,304.064880 
	C468.072021,304.064880 467.949310,303.952179 467.887817,303.895996 
z"/>
<path fill="#BE6742" opacity="1.000000" stroke="none" 
	d="
M445.622803,337.880371 
	C445.468933,338.734741 445.050201,339.784393 444.263550,340.883728 
	C444.383057,339.980865 444.870514,339.028259 445.622803,337.880371 
z"/>
<path fill="#BE6742" opacity="1.000000" stroke="none" 
	d="
M452.682312,326.851837 
	C452.764740,327.025940 452.616669,327.351410 452.249084,327.836243 
	C452.170349,327.664795 452.311066,327.334015 452.682312,326.851837 
z"/>
<path fill="#C26742" opacity="1.000000" stroke="none" 
	d="
M433.990448,362.382416 
	C433.998779,362.000000 434.003448,361.502258 434.351196,361.206055 
	C437.131836,356.606567 439.564697,352.303284 441.997528,348.000000 
	C442.579163,346.861694 443.160767,345.723419 443.875061,344.294495 
	C446.000214,341.249268 447.992676,338.494659 449.992004,335.370056 
	C450.568359,333.861115 451.137878,332.722198 451.857239,331.293793 
	C453.337097,329.256531 454.667145,327.508789 455.997040,325.380493 
	C458.228821,321.865723 460.460754,318.731445 463.186218,315.237274 
	C465.119385,312.253204 466.559082,309.629028 467.998779,307.004883 
	C467.998779,307.004883 468.000000,307.000000 468.349335,306.953918 
	C470.465393,303.938568 472.232117,300.969299 473.998779,298.000000 
	C474.491180,297.417938 474.983612,296.835876 476.082947,296.083832 
	C484.209045,289.993896 488.346252,281.961670 490.999146,273.002441 
	C490.999146,273.002441 491.000000,273.000000 491.319763,272.967346 
	C492.426331,272.289795 493.213165,271.644897 494.000000,271.000000 
	C500.436188,269.481323 503.122681,265.191071 503.257904,258.167603 
	C503.677002,256.340698 503.837860,255.170349 503.998779,254.000000 
	C504.176849,253.451538 504.354889,252.903076 505.113586,252.133606 
	C507.796173,248.941742 509.898102,245.970886 512.000000,243.000000 
	C515.596008,243.381790 517.048950,241.905670 517.096497,238.163666 
	C517.149597,233.986328 519.373230,230.687241 522.579651,227.598648 
	C526.151794,236.205948 526.151794,236.205948 519.153564,242.016586 
	C521.473938,244.695541 523.653503,245.080490 525.821716,241.971359 
	C528.184204,238.583435 530.630127,238.405991 532.822205,241.819153 
	C534.614624,244.610138 536.412476,247.509048 537.469238,250.611694 
	C537.960510,252.054230 537.265869,254.763992 536.121460,255.731934 
	C533.169312,258.228729 533.059021,261.544006 534.881409,263.618835 
	C536.246155,265.172607 540.243652,265.867584 542.304199,265.040344 
	C546.071228,263.528076 547.877136,264.919678 549.782837,267.589935 
	C555.491028,275.588165 561.507446,283.380920 566.910889,291.578644 
	C575.093384,303.992615 583.339783,316.408142 590.676880,329.324127 
	C598.926819,343.847076 606.947144,358.596375 613.666748,373.863647 
	C619.525391,387.174744 623.655579,401.272583 628.116699,415.161804 
	C630.373108,422.187134 632.166504,429.444122 633.284607,436.732086 
	C634.852234,446.949615 636.549133,457.304230 636.435059,467.580719 
	C636.309448,478.881531 635.893616,490.576416 628.457520,500.334686 
	C627.692505,501.338531 627.253967,502.740417 627.072388,504.015778 
	C625.674377,513.833679 621.447388,522.342163 614.826111,529.567627 
	C612.927368,531.639648 610.125244,533.104370 607.471313,534.207458 
	C604.227478,535.555725 602.556396,537.455994 601.843323,541.006226 
	C601.327087,543.576538 599.964050,546.929321 597.931824,548.072815 
	C590.353943,552.336792 583.780029,558.799011 574.522583,559.662476 
	C573.550476,559.753174 572.160217,560.107971 571.646912,559.620728 
	C567.514709,555.698364 562.538147,557.811646 557.933960,557.601135 
	C556.727478,557.546021 555.468201,558.645508 554.233154,559.214722 
	C554.842651,560.197021 555.225891,561.536194 556.104858,562.093384 
	C558.558350,563.648621 558.227844,565.378113 556.539917,566.968933 
	C555.279907,568.156433 553.668945,569.420776 552.048889,569.703430 
	C541.976013,571.460938 531.874878,574.016479 521.746643,574.191406 
	C513.703064,574.330261 505.393646,574.888672 497.244110,571.511780 
	C489.993866,568.507507 481.641663,568.278992 474.080627,565.869019 
	C468.756287,564.171936 463.942444,560.873291 458.900665,558.289734 
	C458.995148,557.720581 459.089630,557.151428 459.184082,556.582336 
	C460.756531,556.056763 462.305908,555.439392 463.909271,555.037170 
	C465.019806,554.758484 466.746307,555.225952 467.272522,554.592041 
	C472.466187,548.335327 478.367157,553.147217 483.828827,553.588257 
	C488.736664,553.984619 493.535767,555.638428 498.404297,556.632446 
	C504.065948,557.788391 508.760376,552.790039 506.541199,547.203613 
	C505.621399,546.446594 505.234131,545.971558 504.889435,545.122925 
	C504.952820,544.499573 504.973633,544.249817 504.921631,543.638794 
	C499.674774,539.913879 494.021484,539.015625 487.633667,539.994263 
	C481.070801,536.217896 476.096283,530.096008 467.955750,529.641846 
	C466.996216,525.707520 464.645508,524.008484 460.788818,523.884766 
	C460.311920,523.565186 460.118591,523.309570 459.953613,522.651855 
	C458.867615,520.857483 457.956818,519.272827 456.689087,518.061707 
	C456.370392,517.757263 454.907654,518.650330 453.685974,519.024536 
	C453.214020,519.093689 453.026825,519.131409 452.849701,519.133179 
	C452.859772,519.097168 452.923218,519.136658 452.822021,518.893921 
	C452.437317,518.455750 452.153839,518.260376 451.915222,518.076599 
	C451.960114,518.088196 451.877197,518.129700 451.916077,517.707397 
	C449.806427,512.243469 452.425873,504.547119 443.999451,502.601532 
	C443.336060,499.108154 444.094910,495.029999 439.006134,494.747498 
	C439.002502,494.498016 438.995117,493.999084 438.988953,493.649536 
	C438.323486,492.528809 437.664185,491.757599 437.002869,490.598755 
	C436.334747,487.808044 435.668579,485.405029 435.212494,482.822266 
	C434.951630,482.093262 434.480713,481.543945 434.007568,480.620514 
	C434.004333,479.498138 434.003326,478.749908 434.257019,477.761688 
	C434.674469,474.347809 434.837250,471.173920 435.313843,467.820312 
	C435.929047,466.203705 436.585144,464.733368 436.453735,463.337158 
	C436.221375,460.867676 435.509796,458.443268 435.007904,455.616333 
	C435.344696,453.488434 435.672363,451.744232 436.374329,450.008240 
	C438.275970,450.258179 439.803223,450.499878 440.798706,450.657410 
	C439.095123,447.664368 437.241608,444.797363 435.774414,441.744690 
	C433.159332,436.303741 428.188477,434.361298 422.647095,437.047516 
	C417.528412,440.165497 417.162140,445.040894 417.000000,450.000000 
	C412.831512,454.635559 415.565918,458.392334 418.855682,462.175873 
	C415.326843,467.056122 413.631653,473.382965 406.389160,474.581116 
	C406.333160,471.442871 406.665955,468.721436 406.998779,466.000000 
	C406.665619,462.627380 406.332458,459.254730 405.999481,455.066467 
	C405.999786,453.500580 405.999878,452.750275 406.000000,452.000000 
	C409.877594,449.324860 406.773254,445.887543 407.012939,442.000824 
	C407.682037,436.791656 408.341034,432.395844 409.000000,428.000000 
	C413.106812,424.987061 409.323517,421.194458 410.351227,417.355988 
	C412.132050,412.912720 413.565308,408.956360 414.998566,405.000000 
	C415.000427,404.251068 415.002289,403.502167 415.346802,402.313721 
	C418.996002,397.836823 422.203003,393.761353 421.002319,387.998230 
	C421.499390,386.481323 421.996460,384.964447 423.079651,383.164368 
	C424.444427,380.920197 425.223145,378.959198 426.001831,376.998230 
	C426.896240,375.201416 427.790680,373.404633 428.843872,371.305145 
	C433.396057,369.908966 432.846558,365.827606 433.990448,362.382416 
z"/>
<path fill="#FBE2CA" opacity="1.000000" stroke="none" 
	d="
M504.846863,545.496521 
	C505.234131,545.971558 505.621399,546.446594 506.173645,547.079346 
	C507.476257,551.916443 505.016968,553.316650 500.921722,553.050903 
	C483.897766,551.946533 469.237488,545.011780 456.034485,534.623413 
	C446.217987,526.899597 438.975677,517.019165 432.431335,505.734192 
	C430.073914,500.436371 428.047638,495.716858 426.021393,490.997345 
	C422.320282,477.204926 420.170135,463.258636 421.958466,448.940765 
	C422.284485,446.330505 422.798920,443.743805 423.267395,440.732086 
	C423.308441,440.317963 423.307709,440.279877 423.657654,440.183044 
	C428.984283,438.321320 431.199707,439.648163 431.081390,444.424103 
	C431.044891,445.898407 430.636658,447.359528 430.482086,448.835449 
	C428.964844,463.324921 429.892670,477.525757 435.616272,491.481323 
	C435.869537,492.202759 436.045868,492.603668 436.265442,493.351929 
	C440.051727,502.764496 444.562683,511.340393 451.877197,518.129700 
	C451.877197,518.129700 451.960114,518.088196 451.982025,518.346191 
	C452.310364,518.781677 452.616791,518.959167 452.923218,519.136658 
	C452.923218,519.136658 452.859772,519.097168 452.920715,519.375977 
	C453.261383,519.826294 453.541138,519.997864 453.858765,520.159302 
	C453.896667,520.149231 453.847107,520.088440 453.910645,520.360474 
	C454.286499,520.806458 454.598755,520.980347 454.917603,521.111816 
	C454.924194,521.069336 454.841766,521.093933 454.902527,521.367798 
	C455.276978,521.814392 455.590668,521.987061 455.912323,522.116272 
	C455.920288,522.072754 455.836487,522.101074 455.895447,522.375854 
	C456.270782,522.820862 456.587128,522.991089 456.874084,523.132507 
	C456.844696,523.103760 456.831268,523.184875 456.944946,523.496704 
	C459.642822,525.943481 462.226990,528.078491 464.804321,530.236572 
	C464.797485,530.259583 464.778381,530.303894 464.963043,530.584106 
	C467.184265,532.301086 469.144287,533.864014 471.270386,535.153137 
	C481.587646,541.408752 493.007385,544.148254 504.846863,545.496521 
z"/>
<path fill="#BE6742" opacity="1.000000" stroke="none" 
	d="
M416.354309,513.955200 
	C417.253082,506.997498 414.095795,502.020660 408.342651,498.022949 
	C407.875122,495.542328 407.751465,493.117218 407.591034,489.971680 
	C408.995270,491.546112 410.001129,492.673859 411.429108,494.274902 
	C415.047455,493.067566 418.805450,491.813629 422.781708,491.210571 
	C422.899933,497.739624 424.352020,503.002563 429.000000,506.998779 
	C428.024048,507.807434 427.150848,508.812561 426.052429,509.387085 
	C422.987305,510.990265 419.828949,512.415100 416.354309,513.955200 
z"/>
<path fill="#BF6B47" opacity="1.000000" stroke="none" 
	d="
M429.345856,506.959747 
	C424.352020,503.002563 422.899933,497.739624 423.000000,491.430115 
	C423.755310,490.998535 424.510620,490.998291 425.643677,490.997681 
	C428.047638,495.716858 430.073914,500.436371 432.183228,505.508118 
	C431.408081,506.213806 430.549896,506.567261 429.345856,506.959747 
z"/>
<path fill="#BE6742" opacity="1.000000" stroke="none" 
	d="
M490.712280,273.127930 
	C488.346252,281.961670 484.209045,289.993896 476.344910,295.956909 
	C479.419769,290.419373 482.882690,284.864441 486.227875,279.239471 
	C487.029724,277.891052 487.439880,276.309692 488.058350,274.458130 
	C488.866180,273.805023 489.645813,273.529236 490.712280,273.127930 
z"/>
<path fill="#BE6742" opacity="1.000000" stroke="none" 
	d="
M511.786682,242.771240 
	C509.898102,245.970886 507.796173,248.941742 505.347107,251.954819 
	C507.191101,248.845505 509.382233,245.693985 511.786682,242.771240 
z"/>
<path fill="#C26742" opacity="1.000000" stroke="none" 
	d="
M564.595886,564.478149 
	C563.989990,564.015930 563.670654,563.431458 563.351318,562.846924 
	C563.921021,562.675293 564.490723,562.503723 565.060486,562.332153 
	C565.001099,563.006775 564.941772,563.681274 564.595886,564.478149 
z"/>
<path fill="#BE6742" opacity="1.000000" stroke="none" 
	d="
M493.801392,270.774902 
	C493.213165,271.644897 492.426331,272.289795 491.320984,272.966736 
	C491.869232,272.182465 492.735992,271.366119 493.801392,270.774902 
z"/>
<path fill="#BE6742" opacity="1.000000" stroke="none" 
	d="
M503.711792,254.154175 
	C503.837860,255.170349 503.677002,256.340698 503.258057,257.755524 
	C503.141602,256.769440 503.283234,255.538895 503.711792,254.154175 
z"/>
<path fill="#C26742" opacity="1.000000" stroke="none" 
	d="
M537.644653,259.572266 
	C538.055542,259.679443 538.304321,259.941010 538.553162,260.202545 
	C538.444824,260.305359 538.247742,260.503510 538.240967,260.497192 
	C537.977356,260.251953 537.731079,259.988068 537.644653,259.572266 
z"/>
<path fill="#BE6742" opacity="1.000000" stroke="none" 
	d="
M417.392273,449.981964 
	C417.162140,445.040894 417.528412,440.165497 422.650421,437.458374 
	C423.106995,438.641083 423.207336,439.460480 423.307709,440.279877 
	C423.307709,440.279877 423.308441,440.317963 423.323608,440.331360 
	C422.233063,442.336212 421.146484,444.338623 420.014648,446.315125 
	C419.306549,447.551575 418.530243,448.748993 417.392273,449.981964 
z"/>
<path fill="#BE6742" opacity="1.000000" stroke="none" 
	d="
M406.601074,466.018982 
	C406.665955,468.721436 406.333160,471.442871 406.000183,474.582153 
	C405.366791,474.543457 404.733551,474.086884 404.048950,473.315674 
	C404.724823,470.677460 402.206604,467.325775 406.601074,466.018982 
z"/>
<path fill="#BE6742" opacity="1.000000" stroke="none" 
	d="
M422.770203,485.670166 
	C421.636597,484.935577 420.570251,483.866241 419.503906,482.796875 
	C420.098724,482.329956 420.693542,481.863037 421.288330,481.396118 
	C421.804718,482.709198 422.321106,484.022308 422.770203,485.670166 
z"/>
<path fill="#BE6742" opacity="1.000000" stroke="none" 
	d="
M420.731812,388.214996 
	C422.203003,393.761353 418.996002,397.836823 415.348846,401.939240 
	C416.825958,397.480103 418.643616,392.955933 420.731812,388.214996 
z"/>
<path fill="#BE6742" opacity="1.000000" stroke="none" 
	d="
M408.638794,428.079956 
	C408.341034,432.395844 407.682037,436.791656 407.010895,441.593750 
	C406.355713,441.377045 405.068787,440.610962 405.170441,440.153473 
	C406.065826,436.124420 407.208313,432.150299 408.638794,428.079956 
z"/>
<path fill="#BE6742" opacity="1.000000" stroke="none" 
	d="
M414.644653,405.075897 
	C413.565308,408.956360 412.132050,412.912720 410.352448,416.936279 
	C411.434296,413.052948 412.862518,409.102356 414.644653,405.075897 
z"/>
<path fill="#BE6742" opacity="1.000000" stroke="none" 
	d="
M425.699768,377.165771 
	C425.223145,378.959198 424.444427,380.920197 423.332886,382.939636 
	C423.799255,381.109833 424.598511,379.221558 425.699768,377.165771 
z"/>
<path fill="#BE6742" opacity="1.000000" stroke="none" 
	d="
M405.743408,452.111877 
	C405.999878,452.750275 405.999786,453.500580 405.999207,454.626038 
	C405.366211,454.544220 404.733612,454.087189 404.050537,453.315460 
	C404.495605,452.741760 404.991211,452.482788 405.743408,452.111877 
z"/>
<path fill="#BE6742" opacity="1.000000" stroke="none" 
	d="
M473.712524,298.152039 
	C472.232117,300.969299 470.465393,303.938568 468.351318,306.952942 
	C468.011200,306.264252 468.018463,305.530457 468.048889,304.430786 
	C468.718658,303.292206 469.365265,302.519562 470.042419,301.406921 
	C471.190674,300.145966 472.308441,299.225037 473.712524,298.152039 
z"/>
<path fill="#BE6742" opacity="1.000000" stroke="none" 
	d="
M467.711914,307.155701 
	C466.559082,309.629028 465.119385,312.253204 463.340454,314.939301 
	C463.337372,313.596466 463.673553,312.191681 464.038940,310.424805 
	C465.187134,309.143921 466.306091,308.225220 467.711914,307.155701 
z"/>
<path fill="#BE6742" opacity="1.000000" stroke="none" 
	d="
M441.711548,348.126160 
	C439.564697,352.303284 437.131836,356.606567 434.353149,360.957184 
	C434.012543,360.267822 434.017761,359.531128 434.044617,358.427277 
	C435.721710,355.320770 437.377197,352.581482 439.063141,349.464600 
	C439.870911,348.808838 440.648254,348.530579 441.711548,348.126160 
z"/>
<path fill="#BE6742" opacity="1.000000" stroke="none" 
	d="
M423.657654,440.183044 
	C423.207336,439.460480 423.106995,438.641083 423.003296,437.410828 
	C428.188477,434.361298 433.159332,436.303741 435.774414,441.744690 
	C437.241608,444.797363 439.095123,447.664368 440.798706,450.657410 
	C439.803223,450.499878 438.275970,450.258179 436.112793,449.816345 
	C434.681671,449.626801 433.886414,449.637390 433.091156,449.648010 
	C434.518311,451.527710 429.554108,455.326843 434.998779,456.000000 
	C435.509796,458.443268 436.221375,460.867676 436.453735,463.337158 
	C436.585144,464.733368 435.929047,466.203705 435.050537,467.626801 
	C432.711151,465.644135 431.827637,466.585022 432.085663,468.610046 
	C432.488403,471.770660 433.340607,474.874023 434.002319,478.001648 
	C434.003326,478.749908 434.004333,479.498138 434.031433,480.915710 
	C434.372528,482.057312 434.687469,482.529663 435.002441,483.001984 
	C435.668579,485.405029 436.334747,487.808044 436.635834,490.637207 
	C436.026978,491.095825 435.783142,491.128296 435.539307,491.160797 
	C429.892670,477.525757 428.964844,463.324921 430.482086,448.835449 
	C430.636658,447.359528 431.044891,445.898407 431.081390,444.424103 
	C431.199707,439.648163 428.984283,438.321320 423.657654,440.183044 
z"/>
<path fill="#BE6742" opacity="1.000000" stroke="none" 
	d="
M504.889465,545.122925 
	C493.007385,544.148254 481.587646,541.408752 471.270386,535.153137 
	C469.144287,533.864014 467.184265,532.301086 465.360168,530.494873 
	C466.381348,530.083679 467.190063,530.041870 467.998779,530.000000 
	C476.096283,530.096008 481.070801,536.217896 487.906616,540.261597 
	C494.029907,541.692017 499.512146,542.846008 504.994415,544.000000 
	C504.973633,544.249817 504.952820,544.499573 504.889465,545.122925 
z"/>
<path fill="#BE6742" opacity="1.000000" stroke="none" 
	d="
M451.916077,517.707397 
	C444.562683,511.340393 440.051727,502.764496 436.559662,493.388794 
	C437.538788,493.385315 438.266937,493.692200 438.995117,493.999084 
	C438.995117,493.999084 439.002502,494.498016 439.047791,495.098816 
	C440.729095,498.133087 442.365173,500.566528 444.001221,503.000000 
	C452.425873,504.547119 449.806427,512.243469 451.916077,517.707397 
z"/>
<path fill="#BE6742" opacity="1.000000" stroke="none" 
	d="
M504.921631,543.638794 
	C499.512146,542.846008 494.029907,541.692017 488.274658,540.270630 
	C494.021484,539.015625 499.674774,539.913879 504.921631,543.638794 
z"/>
<path fill="#BE6742" opacity="1.000000" stroke="none" 
	d="
M434.257019,477.761688 
	C433.340607,474.874023 432.488403,471.770660 432.085663,468.610046 
	C431.827637,466.585022 432.711151,465.644135 434.736694,467.806458 
	C434.837250,471.173920 434.674469,474.347809 434.257019,477.761688 
z"/>
<path fill="#BE6742" opacity="1.000000" stroke="none" 
	d="
M443.999451,502.601532 
	C442.365173,500.566528 440.729095,498.133087 439.051392,495.348267 
	C444.094910,495.029999 443.336060,499.108154 443.999451,502.601532 
z"/>
<path fill="#BE6742" opacity="1.000000" stroke="none" 
	d="
M453.970703,518.993042 
	C454.907654,518.650330 456.370392,517.757263 456.689087,518.061707 
	C457.956818,519.272827 458.867615,520.857483 459.558105,522.654053 
	C458.414124,523.064453 457.622681,523.124634 456.831268,523.184875 
	C456.831268,523.184875 456.844696,523.103760 456.777283,522.884277 
	C456.418732,522.476868 456.127594,522.289001 455.836487,522.101074 
	C455.836487,522.101074 455.920288,522.072754 455.815552,521.868286 
	C455.421143,521.473877 455.131470,521.283936 454.841766,521.093933 
	C454.841766,521.093933 454.924194,521.069336 454.818848,520.865112 
	C454.424713,520.470093 454.135925,520.279236 453.847107,520.088440 
	C453.847107,520.088440 453.896667,520.149231 453.913879,519.866821 
	C453.944305,519.387329 453.957489,519.190186 453.970703,518.993042 
z"/>
<path fill="#BE6742" opacity="1.000000" stroke="none" 
	d="
M435.007904,455.616333 
	C429.554108,455.326843 434.518311,451.527710 433.091156,449.648010 
	C433.886414,449.637390 434.681671,449.626801 435.738464,449.808105 
	C435.672363,451.744232 435.344696,453.488434 435.007904,455.616333 
z"/>
<path fill="#BE6742" opacity="1.000000" stroke="none" 
	d="
M467.955750,529.641846 
	C467.190063,530.041870 466.381348,530.083679 465.175507,530.214722 
	C464.778381,530.303894 464.797485,530.259583 464.831604,529.882202 
	C463.577484,527.670776 462.289276,525.836792 461.001068,524.002747 
	C464.645508,524.008484 466.996216,525.707520 467.955750,529.641846 
z"/>
<path fill="#BE6742" opacity="1.000000" stroke="none" 
	d="
M460.788818,523.884766 
	C462.289276,525.836792 463.577484,527.670776 464.838440,529.859131 
	C462.226990,528.078491 459.642822,525.943481 456.944946,523.496704 
	C457.622681,523.124634 458.414124,523.064453 459.601074,523.002136 
	C460.118591,523.309570 460.311920,523.565186 460.788818,523.884766 
z"/>
<path fill="#BE6742" opacity="1.000000" stroke="none" 
	d="
M438.988953,493.649536 
	C438.266937,493.692200 437.538788,493.385315 436.516418,493.041504 
	C436.045868,492.603668 435.869537,492.202759 435.616272,491.481323 
	C435.783142,491.128296 436.026978,491.095825 436.637817,491.024841 
	C437.664185,491.757599 438.323486,492.528809 438.988953,493.649536 
z"/>
<path fill="#BE6742" opacity="1.000000" stroke="none" 
	d="
M435.212494,482.822266 
	C434.687469,482.529663 434.372528,482.057312 434.033691,481.289795 
	C434.480713,481.543945 434.951630,482.093262 435.212494,482.822266 
z"/>
<path fill="#BE6742" opacity="1.000000" stroke="none" 
	d="
M452.822021,518.893921 
	C452.616791,518.959167 452.310364,518.781677 451.937134,518.334595 
	C452.153839,518.260376 452.437317,518.455750 452.822021,518.893921 
z"/>
<path fill="#BE6742" opacity="1.000000" stroke="none" 
	d="
M453.685974,519.024536 
	C453.957489,519.190186 453.944305,519.387329 453.875977,519.876953 
	C453.541138,519.997864 453.261383,519.826294 452.910645,519.411926 
	C453.026825,519.131409 453.214020,519.093689 453.685974,519.024536 
z"/>
<path fill="#BE6742" opacity="1.000000" stroke="none" 
	d="
M453.910645,520.360474 
	C454.135925,520.279236 454.424713,520.470093 454.812256,520.907593 
	C454.598755,520.980347 454.286499,520.806458 453.910645,520.360474 
z"/>
<path fill="#BE6742" opacity="1.000000" stroke="none" 
	d="
M454.902527,521.367798 
	C455.131470,521.283936 455.421143,521.473877 455.807587,521.911865 
	C455.590668,521.987061 455.276978,521.814392 454.902527,521.367798 
z"/>
<path fill="#BE6742" opacity="1.000000" stroke="none" 
	d="
M455.895447,522.375854 
	C456.127594,522.289001 456.418732,522.476868 456.806671,522.913025 
	C456.587128,522.991089 456.270782,522.820862 455.895447,522.375854 
z"/>
</svg>